<svg width="85" height="85" viewBox="0 0 85 85" fill="none" xmlns="http://www.w3.org/2000/svg">
<circle cx="42.5" cy="42.5" r="42.5" fill="#4032B8"/>
<path fill-rule="evenodd" clip-rule="evenodd" d="M40.0466 33.0959C40.3095 33.0975 40.5444 33.2544 40.6388 33.4912L42.5625 38.3196L44.3807 34.6337C44.4819 34.4285 44.6918 34.2937 44.927 34.2828C45.1621 34.2719 45.3844 34.3867 45.5056 34.5815L46.794 36.6545H50.8559C51.2088 36.6545 51.4949 36.9307 51.4949 37.2713C51.4949 37.612 51.2088 37.8882 50.8559 37.8882H46.4322C46.2078 37.8882 45.9998 37.7745 45.8843 37.5887L45.0225 36.2022L43.0769 40.1462C42.9671 40.3688 42.7305 40.5069 42.4753 40.4974C42.2201 40.4879 41.9953 40.3326 41.9036 40.1025L40.0307 35.4017L39.1611 37.5004C39.064 37.7346 38.8291 37.8882 38.5678 37.8882H34.1441C33.7912 37.8882 33.5051 37.612 33.5051 37.2713C33.5051 36.9307 33.7912 36.6545 34.1441 36.6545H38.1352L39.4491 33.4836C39.5467 33.248 39.7838 33.0942 40.0466 33.0959Z" fill="white"/>
<path d="M56.2627 24.8398H51.2983V22.9418C51.2983 22.5622 50.9542 22.2301 50.561 22.2301H45.4983C45.1542 20.949 43.9746 20 42.5 20C41.0254 20 39.8458 20.949 39.5017 22.2301H34.439C34.0458 22.2301 33.7017 22.5622 33.7017 22.9418V24.8398H28.7373C28.3441 24.8398 28 25.1719 28 25.5515V57.2883C28 57.6679 28.3441 58 28.7373 58H56.2627C56.6559 58 57 57.6679 57 57.2883V25.5515C57 25.1719 56.7051 24.8398 56.2627 24.8398ZM35.1763 23.6536H40.1898C40.583 23.6536 40.9271 23.3214 40.9271 22.9418C40.9271 22.0877 41.6644 21.4235 42.5 21.4235C43.3356 21.4235 44.0729 22.1352 44.0729 22.9418C44.0729 23.3214 44.417 23.6536 44.8102 23.6536H49.8237V27.4495H35.1763V23.6536ZM55.5254 56.5765H29.4746V26.2633H33.7017V28.1612C33.7017 28.5408 34.0458 28.8729 34.439 28.8729H50.561C50.9542 28.8729 51.2983 28.5408 51.2983 28.1612V26.2633H55.5254V56.5765Z" fill="white"/>
<path d="M50.8068 50.076H34.1932C33.8 50.076 33.4559 50.4082 33.4559 50.7878C33.4559 51.1674 33.8 51.4995 34.1932 51.4995H50.8068C51.2 51.4995 51.5441 51.1674 51.5441 50.7878C51.5441 50.4082 51.2 50.076 50.8068 50.076Z" fill="white"/>
<path d="M50.8068 45.3312H34.1932C33.8 45.3312 33.4559 45.6633 33.4559 46.0429C33.4559 46.4225 33.8 46.7546 34.1932 46.7546H50.8068C51.2 46.7546 51.5441 46.4225 51.5441 46.0429C51.5441 45.6633 51.2 45.3312 50.8068 45.3312Z" fill="white"/>
<path d="M40.6388 33.4912L40.4065 33.5838L40.6388 33.4912ZM40.0466 33.0959L40.0482 32.8459L40.0466 33.0959ZM42.5625 38.3196L42.3303 38.4121C42.3668 38.5039 42.4539 38.5655 42.5526 38.5694C42.6513 38.5733 42.743 38.5188 42.7867 38.4302L42.5625 38.3196ZM44.3807 34.6337L44.1565 34.5231V34.5231L44.3807 34.6337ZM44.927 34.2828L44.9154 34.033L44.927 34.2828ZM45.5056 34.5815L45.7179 34.4496L45.5056 34.5815ZM46.794 36.6545L46.5817 36.7865C46.6273 36.8599 46.7076 36.9045 46.794 36.9045V36.6545ZM45.8843 37.5887L46.0966 37.4567H46.0966L45.8843 37.5887ZM45.0225 36.2022L45.2348 36.0702C45.1869 35.9931 45.1009 35.948 45.0103 35.9525C44.9196 35.9569 44.8384 36.0101 44.7983 36.0916L45.0225 36.2022ZM43.0769 40.1462L43.3011 40.2568L43.0769 40.1462ZM42.4753 40.4974L42.466 40.7472L42.4753 40.4974ZM41.9036 40.1025L41.6714 40.195L41.9036 40.1025ZM40.0307 35.4017L40.263 35.3092C40.2253 35.2147 40.1341 35.1524 40.0324 35.1517C39.9307 35.151 39.8387 35.212 39.7998 35.306L40.0307 35.4017ZM39.1611 37.5004L38.9301 37.4047L39.1611 37.5004ZM38.1352 36.6545V36.9045C38.2363 36.9045 38.3274 36.8436 38.3661 36.7502L38.1352 36.6545ZM39.4491 33.4836L39.2181 33.3879L39.4491 33.4836ZM51.2983 24.8398H51.0483V25.0898H51.2983V24.8398ZM45.4983 22.2301L45.2569 22.2949L45.3066 22.4801H45.4983V22.2301ZM39.5017 22.2301V22.4801H39.6934L39.7431 22.2949L39.5017 22.2301ZM33.7017 24.8398V25.0898H33.9517V24.8398H33.7017ZM35.1763 23.6536V23.4036H34.9263V23.6536H35.1763ZM49.8237 23.6536H50.0737V23.4036H49.8237V23.6536ZM49.8237 27.4495V27.6995H50.0737V27.4495H49.8237ZM35.1763 27.4495H34.9263V27.6995H35.1763V27.4495ZM55.5254 56.5765V56.8265H55.7754V56.5765H55.5254ZM29.4746 56.5765H29.2246V56.8265H29.4746V56.5765ZM29.4746 26.2633V26.0133H29.2246V26.2633H29.4746ZM33.7017 26.2633H33.9517V26.0133H33.7017V26.2633ZM51.2983 26.2633V26.0133H51.0483V26.2633H51.2983ZM55.5254 26.2633H55.7754V26.0133H55.5254V26.2633ZM40.871 33.3987C40.7375 33.0635 40.4087 32.8482 40.0482 32.8459L40.045 33.3458C40.2103 33.3469 40.3514 33.4453 40.4065 33.5838L40.871 33.3987ZM42.7947 38.2271L40.871 33.3987L40.4065 33.5838L42.3303 38.4121L42.7947 38.2271ZM44.1565 34.5231L42.3383 38.209L42.7867 38.4302L44.6049 34.7443L44.1565 34.5231ZM44.9154 34.033C44.5926 34.048 44.2994 34.2334 44.1565 34.5231L44.6049 34.7443C44.6644 34.6236 44.791 34.5393 44.9385 34.5325L44.9154 34.033ZM45.7179 34.4496C45.5474 34.1753 45.2381 34.0181 44.9154 34.033L44.9385 34.5325C45.0862 34.5257 45.2214 34.598 45.2932 34.7135L45.7179 34.4496ZM47.0063 36.5225L45.7179 34.4496L45.2932 34.7135L46.5817 36.7865L47.0063 36.5225ZM50.8559 36.4045H46.794V36.9045H50.8559V36.4045ZM51.7449 37.2713C51.7449 36.7844 51.3385 36.4045 50.8559 36.4045V36.9045C51.0791 36.9045 51.2449 37.077 51.2449 37.2713H51.7449ZM50.8559 38.1382C51.3385 38.1382 51.7449 37.7583 51.7449 37.2713H51.2449C51.2449 37.4657 51.0791 37.6382 50.8559 37.6382V38.1382ZM46.4322 38.1382H50.8559V37.6382H46.4322V38.1382ZM45.6719 37.7207C45.8345 37.9822 46.1241 38.1382 46.4322 38.1382V37.6382C46.2914 37.6382 46.165 37.5668 46.0966 37.4567L45.6719 37.7207ZM44.8102 36.3341L45.672 37.7207L46.0966 37.4567L45.2348 36.0702L44.8102 36.3341ZM43.3011 40.2568L45.2467 36.3127L44.7983 36.0916L42.8527 40.0356L43.3011 40.2568ZM42.466 40.7472C42.816 40.7603 43.1461 40.5711 43.3011 40.2568L42.8527 40.0356C42.7881 40.1666 42.6451 40.2536 42.4846 40.2476L42.466 40.7472ZM41.6714 40.195C41.8011 40.5207 42.1159 40.7342 42.466 40.7472L42.4846 40.2476C42.3243 40.2416 42.1895 40.1445 42.1359 40.0099L41.6714 40.195ZM39.7985 35.4942L41.6714 40.195L42.1359 40.0099L40.263 35.3092L39.7985 35.4942ZM39.392 37.5961L40.2617 35.4974L39.7998 35.306L38.9301 37.4047L39.392 37.5961ZM38.5678 38.1382C38.9261 38.1382 39.2548 37.9274 39.392 37.5961L38.9301 37.4047C38.8733 37.5418 38.7321 37.6382 38.5678 37.6382V38.1382ZM34.1441 38.1382H38.5678V37.6382H34.1441V38.1382ZM33.2551 37.2713C33.2551 37.7583 33.6615 38.1382 34.1441 38.1382V37.6382C33.9209 37.6382 33.7551 37.4657 33.7551 37.2713H33.2551ZM34.1441 36.4045C33.6615 36.4045 33.2551 36.7844 33.2551 37.2713H33.7551C33.7551 37.077 33.9209 36.9045 34.1441 36.9045V36.4045ZM38.1352 36.4045H34.1441V36.9045H38.1352V36.4045ZM39.2181 33.3879L37.9042 36.5588L38.3661 36.7502L39.68 33.5793L39.2181 33.3879ZM40.0482 32.8459C39.6878 32.8435 39.3562 33.0546 39.2181 33.3879L39.68 33.5793C39.7372 33.4414 39.8798 33.3448 40.045 33.3458L40.0482 32.8459ZM56.2627 24.5898H51.2983V25.0898H56.2627V24.5898ZM51.5483 24.8398V22.9418H51.0483V24.8398H51.5483ZM51.5483 22.9418C51.5483 22.4159 51.0839 21.9801 50.561 21.9801V22.4801C50.8246 22.4801 51.0483 22.7085 51.0483 22.9418H51.5483ZM50.561 21.9801H45.4983V22.4801H50.561V21.9801ZM45.7397 22.1653C45.3659 20.7734 44.0861 19.75 42.5 19.75V20.25C43.8631 20.25 44.9425 21.1246 45.2569 22.2949L45.7397 22.1653ZM42.5 19.75C40.9139 19.75 39.6341 20.7734 39.2603 22.1653L39.7431 22.2949C40.0575 21.1246 41.1369 20.25 42.5 20.25V19.75ZM39.5017 21.9801H34.439V22.4801H39.5017V21.9801ZM34.439 21.9801C33.9161 21.9801 33.4517 22.4159 33.4517 22.9418H33.9517C33.9517 22.7085 34.1754 22.4801 34.439 22.4801V21.9801ZM33.4517 22.9418V24.8398H33.9517V22.9418H33.4517ZM33.7017 24.5898H28.7373V25.0898H33.7017V24.5898ZM28.7373 24.5898C28.2144 24.5898 27.75 25.0256 27.75 25.5515H28.25C28.25 25.3182 28.4738 25.0898 28.7373 25.0898V24.5898ZM27.75 25.5515V57.2883H28.25V25.5515H27.75ZM27.75 57.2883C27.75 57.8142 28.2144 58.25 28.7373 58.25V57.75C28.4738 57.75 28.25 57.5215 28.25 57.2883H27.75ZM28.7373 58.25H56.2627V57.75H28.7373V58.25ZM56.2627 58.25C56.7856 58.25 57.25 57.8142 57.25 57.2883H56.75C56.75 57.5215 56.5262 57.75 56.2627 57.75V58.25ZM57.25 57.2883V25.5515H56.75V57.2883H57.25ZM57.25 25.5515C57.25 25.0365 56.8458 24.5898 56.2627 24.5898V25.0898C56.5644 25.0898 56.75 25.3073 56.75 25.5515H57.25ZM35.1763 23.9036H40.1898V23.4036H35.1763V23.9036ZM40.1898 23.9036C40.7127 23.9036 41.1771 23.4677 41.1771 22.9418H40.6771C40.6771 23.1751 40.4534 23.4036 40.1898 23.4036V23.9036ZM41.1771 22.9418C41.1771 22.239 41.7889 21.6735 42.5 21.6735V21.1735C41.5399 21.1735 40.6771 21.9365 40.6771 22.9418H41.1771ZM42.5 21.6735C43.2059 21.6735 43.8229 22.2815 43.8229 22.9418H44.3229C44.3229 21.9889 43.4653 21.1735 42.5 21.1735V21.6735ZM43.8229 22.9418C43.8229 23.4677 44.2873 23.9036 44.8102 23.9036V23.4036C44.5466 23.4036 44.3229 23.1751 44.3229 22.9418H43.8229ZM44.8102 23.9036H49.8237V23.4036H44.8102V23.9036ZM49.5737 23.6536V27.4495H50.0737V23.6536H49.5737ZM49.8237 27.1995H35.1763V27.6995H49.8237V27.1995ZM35.4263 27.4495V23.6536H34.9263V27.4495H35.4263ZM55.5254 56.3265H29.4746V56.8265H55.5254V56.3265ZM29.7246 56.5765V26.2633H29.2246V56.5765H29.7246ZM29.4746 26.5133H33.7017V26.0133H29.4746V26.5133ZM33.4517 26.2633V28.1612H33.9517V26.2633H33.4517ZM33.4517 28.1612C33.4517 28.6871 33.9161 29.1229 34.439 29.1229V28.6229C34.1754 28.6229 33.9517 28.3945 33.9517 28.1612H33.4517ZM34.439 29.1229H50.561V28.6229H34.439V29.1229ZM50.561 29.1229C51.0839 29.1229 51.5483 28.6871 51.5483 28.1612H51.0483C51.0483 28.3945 50.8246 28.6229 50.561 28.6229V29.1229ZM51.5483 28.1612V26.2633H51.0483V28.1612H51.5483ZM51.2983 26.5133H55.5254V26.0133H51.2983V26.5133ZM55.2754 26.2633V56.5765H55.7754V26.2633H55.2754ZM50.8068 49.826H34.1932V50.326H50.8068V49.826ZM34.1932 49.826C33.6703 49.826 33.2059 50.2619 33.2059 50.7878H33.7059C33.7059 50.5545 33.9297 50.326 34.1932 50.326V49.826ZM33.2059 50.7878C33.2059 51.3137 33.6703 51.7495 34.1932 51.7495V51.2495C33.9297 51.2495 33.7059 51.0211 33.7059 50.7878H33.2059ZM34.1932 51.7495H50.8068V51.2495H34.1932V51.7495ZM50.8068 51.7495C51.3297 51.7495 51.7941 51.3137 51.7941 50.7878H51.2941C51.2941 51.0211 51.0703 51.2495 50.8068 51.2495V51.7495ZM51.7941 50.7878C51.7941 50.2619 51.3297 49.826 50.8068 49.826V50.326C51.0703 50.326 51.2941 50.5545 51.2941 50.7878H51.7941ZM50.8068 45.0812H34.1932V45.5812H50.8068V45.0812ZM34.1932 45.0812C33.6703 45.0812 33.2059 45.517 33.2059 46.0429H33.7059C33.7059 45.8096 33.9297 45.5812 34.1932 45.5812V45.0812ZM33.2059 46.0429C33.2059 46.5688 33.6703 47.0046 34.1932 47.0046V46.5046C33.9297 46.5046 33.7059 46.2762 33.7059 46.0429H33.2059ZM34.1932 47.0046H50.8068V46.5046H34.1932V47.0046ZM50.8068 47.0046C51.3297 47.0046 51.7941 46.5688 51.7941 46.0429H51.2941C51.2941 46.2762 51.0703 46.5046 50.8068 46.5046V47.0046ZM51.7941 46.0429C51.7941 45.517 51.3297 45.0812 50.8068 45.0812V45.5812C51.0703 45.5812 51.2941 45.8096 51.2941 46.0429H51.7941Z" fill="white"/>
</svg>
