<svg width="90" height="90" viewBox="0 0 90 90" fill="none" xmlns="http://www.w3.org/2000/svg">
<circle cx="45.0824" cy="44.793" r="42.0894" stroke="#D9D9D9"/>
<path d="M45.0824 2.20406C50.6753 2.20406 56.2135 3.30567 61.3807 5.44599C66.5478 7.5863 71.2429 10.7234 75.1977 14.6782C79.1524 18.633 82.2896 23.328 84.4299 28.4952C86.5702 33.6624 87.6718 39.2005 87.6718 44.7934C87.6718 50.3864 86.5702 55.9245 84.4299 61.0917C82.2896 66.2589 79.1524 70.9539 75.1977 74.9087C71.2429 78.8635 66.5478 82.0006 61.3807 84.1409C56.2135 86.2812 50.6753 87.3828 45.0824 87.3828C39.4895 87.3828 33.9513 86.2812 28.7842 84.1409C23.617 82.0006 18.922 78.8635 14.9672 74.9087C11.0124 70.9539 7.87528 66.2589 5.73496 61.0917C3.59465 55.9245 2.49304 50.3863 2.49304 44.7934C2.49304 39.2005 3.59465 33.6624 5.73497 28.4952C7.87528 23.328 11.0124 18.633 14.9672 14.6782C18.922 10.7234 23.617 7.5863 28.7842 5.44598C33.9514 3.30567 39.4895 2.20406 45.0824 2.20406L45.0824 2.20406Z" stroke="#D9D9D9" stroke-width="4" stroke-linecap="round"/>
</svg>
