<svg width="19" height="19" viewBox="0 0 19 19" fill="none" xmlns="http://www.w3.org/2000/svg">
<path d="M9.5 17C13.6421 17 17 13.6421 17 9.5C17 5.35786 13.6421 2 9.5 2C5.35786 2 2 5.35786 2 9.5C2 13.6421 5.35786 17 9.5 17Z" fill="#F0F0F0"/>
<path d="M3.54983 4.93359C2.9607 5.70009 2.51647 6.58353 2.25781 7.54327H6.15951L3.54983 4.93359Z" fill="#0052B4"/>
<path d="M16.7415 7.54349C16.4828 6.58378 16.0386 5.70033 15.4495 4.93384L12.8398 7.54349H16.7415Z" fill="#0052B4"/>
<path d="M2.25781 11.4565C2.5165 12.4162 2.96073 13.2997 3.54983 14.0662L6.15942 11.4565H2.25781Z" fill="#0052B4"/>
<path d="M14.0657 3.55035C13.2992 2.96122 12.4158 2.51699 11.4561 2.2583V6.15997L14.0657 3.55035Z" fill="#0052B4"/>
<path d="M4.93359 15.4494C5.70009 16.0386 6.58353 16.4828 7.54324 16.7415V12.8398L4.93359 15.4494Z" fill="#0052B4"/>
<path d="M7.54321 2.2583C6.58351 2.51699 5.70006 2.96122 4.93359 3.55032L7.54321 6.15994V2.2583Z" fill="#0052B4"/>
<path d="M11.4561 16.7415C12.4158 16.4828 13.2992 16.0386 14.0657 15.4495L11.4561 12.8398V16.7415Z" fill="#0052B4"/>
<path d="M12.8398 11.4565L15.4495 14.0662C16.0386 13.2997 16.4828 12.4162 16.7415 11.4565H12.8398Z" fill="#0052B4"/>
<path d="M16.9365 8.52175H10.4783H10.4783V2.06349C10.158 2.0218 9.83155 2 9.5 2C9.16839 2 8.84196 2.0218 8.52175 2.06349V8.52169V8.52172H2.06349C2.0218 8.84196 2 9.16845 2 9.5C2 9.83161 2.0218 10.158 2.06349 10.4783H8.52169H8.52172V16.9365C8.84196 16.9782 9.16839 17 9.5 17C9.83155 17 10.158 16.9782 10.4783 16.9365V10.4783V10.4783H16.9365C16.9782 10.158 17 9.83161 17 9.5C17 9.16845 16.9782 8.84196 16.9365 8.52175V8.52175Z" fill="#D80027"/>
<path d="M11.4561 11.4566L14.8028 14.8033C14.9567 14.6495 15.1036 14.4886 15.2437 14.3218L12.3784 11.4565H11.4561V11.4566Z" fill="#D80027"/>
<path d="M7.54405 11.4565H7.54399L4.19727 14.8033C4.35113 14.9572 4.512 15.104 4.67876 15.2441L7.54405 12.3788V11.4565Z" fill="#D80027"/>
<path d="M7.54445 7.54363V7.54357L4.1977 4.19678C4.04377 4.35064 3.89693 4.51151 3.75684 4.67827L6.62216 7.5436H7.54445V7.54363Z" fill="#D80027"/>
<path d="M11.4561 7.54351L14.8028 4.19669C14.649 4.04276 14.4881 3.89593 14.3213 3.75586L11.4561 6.62118V7.54351Z" fill="#D80027"/>
<circle cx="9.5" cy="9.5" r="9" stroke="#FF8347"/>
</svg>
