<svg xmlns="http://www.w3.org/2000/svg" width="13" height="11" viewBox="0 0 13 11">
  <g fill="none" fill-rule="evenodd">
    <rect width="2" height="1" x="2" fill="#000000"/>
    <rect width="1" height="2" x="1" y="1" fill="#000000"/>
    <rect width="1" height="2" y="5" fill="#000000"/>
    <rect width="1" height="2" x="3" y="9" fill="#000000"/>
    <rect width="1" height="3" x="10" y="8" fill="#000000"/>
    <rect width="1" height="2" x="11" y="6" fill="#000000"/>
    <rect width="1" height="4" x="12" y="2" fill="#000000"/>
    <rect width="2" height="1" x="5" fill="#000000"/>
    <rect width="1" height="1" x="4" y="1" fill="#000000"/>
    <rect width="1" height="1" x="7" y="1" fill="#000000"/>
    <rect width="1" height="1" x="10" y="2" fill="#000000"/>
    <rect width="1" height="1" x="2" y="3" fill="#000000"/>
    <rect width="1" height="1" x="2" y="8" fill="#000000"/>
    <rect width="1" height="1" x="1" y="7" fill="#000000"/>
    <rect width="2" height="1" x="8" fill="#000000"/>
    <rect width="2" height="1" x="10" y="1" fill="#000000"/>
    <rect width="2" height="1" x="1" y="4" fill="#000000"/>
    <rect width="2" height="2" x="2" y="1" fill="#FFFFFF"/>
    <rect width="7" height="7" x="3" y="2" fill="#FFFFFF"/>
    <rect width="6" height="2" x="4" y="9" fill="#FFFFFF" transform="matrix(1 0 0 -1 0 20)"/>
    <rect width="2" height="2" x="5" y="1" fill="#FFFFFF"/>
    <rect width="2" height="2" x="8" y="1" fill="#FFFFFF"/>
    <rect width="1" height="2" x="11" y="2" fill="#FFFFFF"/>
    <rect width="2" height="3" x="10" y="3" fill="#FFFFFF"/>
    <rect width="9" height="3" x="2" y="5" fill="#FFFFFF"/>
    <rect width="1" height="2" x="1" y="5" fill="#FFFFFF"/>
  </g>
</svg>
