<svg width="32" height="32" viewBox="0 0 32 32" fill="none" xmlns="http://www.w3.org/2000/svg">
<path d="M15.9422 2.92274C20.1935 2.92274 20.7249 2.92274 22.452 3.0556C26.8361 3.18845 28.8289 5.31408 28.9617 9.56535C29.0946 11.2924 29.0946 11.691 29.0946 15.9422C29.0946 20.1935 29.0946 20.7249 28.9617 22.3191C28.8289 26.5704 26.7033 28.696 22.452 28.8289C20.7249 28.9617 20.3264 28.9617 15.9422 28.9617C11.691 28.9617 11.1596 28.9617 9.56535 28.8289C5.18123 28.696 3.18845 26.5704 3.0556 22.3191C2.92274 20.5921 2.92274 20.1935 2.92274 15.9422C2.92274 11.691 2.92274 11.1596 3.0556 9.56535C3.18845 5.31408 5.31408 3.18845 9.56535 3.0556C11.1596 2.92274 11.691 2.92274 15.9422 2.92274ZM15.9422 0C11.5581 0 11.0267 0 9.43249 0.132852C3.587 0.398556 0.398556 3.587 0.132852 9.43249C0 11.0267 0 11.5581 0 15.9422C0 20.3264 0 20.8578 0.132852 22.452C0.398556 28.2975 3.587 31.4859 9.43249 31.7516C11.0267 31.8845 11.5581 31.8845 15.9422 31.8845C20.3264 31.8845 20.8578 31.8845 22.452 31.7516C28.2975 31.4859 31.4859 28.2975 31.7516 22.452C31.8845 20.8578 31.8845 20.3264 31.8845 15.9422C31.8845 11.5581 31.8845 11.0267 31.7516 9.43249C31.4859 3.587 28.2975 0.398556 22.452 0.132852C20.8578 0 20.3264 0 15.9422 0ZM15.9422 7.70542C11.4253 7.70542 7.70542 11.4253 7.70542 15.9422C7.70542 20.4592 11.4253 24.1791 15.9422 24.1791C20.4592 24.1791 24.1791 20.4592 24.1791 15.9422C24.1791 11.4253 20.4592 7.70542 15.9422 7.70542ZM15.9422 21.2563C13.0195 21.2563 10.6282 18.865 10.6282 15.9422C10.6282 13.0195 13.0195 10.6282 15.9422 10.6282C18.865 10.6282 21.2563 13.0195 21.2563 15.9422C21.2563 18.865 18.865 21.2563 15.9422 21.2563ZM24.4448 5.57978C23.382 5.57978 22.5848 6.3769 22.5848 7.43971C22.5848 8.50253 23.382 9.29964 24.4448 9.29964C25.5076 9.29964 26.3047 8.50253 26.3047 7.43971C26.3047 6.3769 25.5076 5.57978 24.4448 5.57978Z" fill="white" fill-opacity="0.2"/>
</svg>
