<svg width="29" height="27" viewBox="0 0 29 27" fill="none" xmlns="http://www.w3.org/2000/svg">
<path fill-rule="evenodd" clip-rule="evenodd" d="M29.0003 26.3631H22.591V17.0953C22.591 14.6695 21.5885 13.0135 19.3838 13.0135C17.6975 13.0135 16.7598 14.131 16.3233 15.208C16.1596 15.5946 16.1851 16.1331 16.1851 16.6716V26.3631H9.83553C9.83553 26.3631 9.91737 9.94618 9.83553 8.45389H16.1851V11.2646C16.5603 10.0357 18.5893 8.28171 21.8272 8.28171C25.8443 8.28171 29.0003 10.8578 29.0003 16.4049V26.3631ZM3.41352 6.21393H3.37259C1.32653 6.21393 0 4.84488 0 3.1095C0 1.34036 1.36575 0 3.45273 0C5.53801 0 6.82021 1.33698 6.86113 3.10443C6.86113 4.83981 5.53801 6.21393 3.41352 6.21393ZM0.730656 8.45446H6.3829V26.3636H0.730656V8.45446Z" fill="white" fill-opacity="0.2"/>
</svg>