
<svg viewBox="0 0 32 32"  fill="none" xmlns="http://www.w3.org/2000/svg"><circle cx="16" cy="16" r="15.5" stroke="#FBE8D9"/><path fill-rule="evenodd" clip-rule="evenodd" d="M23.0002 21.3025h-2.8734v-4.1549c0-1.0876-.4495-1.83-1.4379-1.83-.756 0-1.1764.501-1.3721.9839-.0734.1733-.0619.4147-.0619.6561v4.3449h-2.8467s.0367-7.36 0-8.0291h2.8467v1.2601c.1682-.5509 1.0778-1.3373 2.5294-1.3373 1.801 0 3.2159 1.1549 3.2159 3.6419v4.4644zm-11.4698-9.0337h-.0184c-.9173 0-1.512-.6138-1.512-1.3918 0-.7932.6123-1.39409 1.5479-1.39409.9349 0 1.5098.59939 1.5281 1.39179 0 .778-.5932 1.3941-1.5456 1.3941zm-1.2062 1.0051h2.5341v8.0291h-2.5341v-8.0291z" fill="#4032B8"/></svg>
