<!-- Generator: Adobe Illustrator 26.2.1, SVG Export Plug-In . SVG Version: 6.00 Build 0)  -->
<svg version="1.1" id="Livello_1" xmlns="http://www.w3.org/2000/svg" xmlns:xlink="http://www.w3.org/1999/xlink" x="0px" y="0px"
	 viewBox="0 0 1000 473.1" style="enable-background:new 0 0 1000 473.1;" xml:space="preserve">
<style type="text/css">
	.st0{fill:#5D23D0;}
	.st1{fill:#FFFFFF;}
</style>
<circle class="st0" cx="93.6" cy="95.2" r="73.9"/>
<g>
	<path class="st1" d="M38.6,445.5h9c2.3,0,4.4-0.3,6.3-0.9c1.9-0.6,3.6-1.5,5-2.7s2.6-2.8,3.4-4.7c0.8-1.9,1.2-4.2,1.2-6.9
		s-0.4-5-1.2-6.9s-1.9-3.5-3.4-4.7c-1.4-1.2-3.1-2.1-5-2.7c-2-0.6-4.1-0.9-6.3-0.9h-9V445.5z M33.8,410.7h15.3
		c1.3,0,2.7,0.1,4.2,0.4c1.5,0.3,2.9,0.8,4.4,1.4c1.4,0.6,2.8,1.5,4.2,2.5c1.3,1,2.5,2.3,3.5,3.7c1,1.5,1.8,3.1,2.4,5s0.9,4,0.9,6.4
		s-0.3,4.5-0.9,6.4s-1.4,3.6-2.4,5c-1,1.5-2.2,2.7-3.5,3.7s-2.7,1.9-4.2,2.5c-1.4,0.6-2.9,1.1-4.4,1.4c-1.5,0.3-2.8,0.4-4.2,0.4
		H33.8V410.7z"/>
	<polygon class="st1" points="81.8,410.7 81.8,449.8 107.8,449.8 107.8,445.5 86.5,445.5 86.5,431.6 105.4,431.6 105.4,427.3 
		86.5,427.3 86.5,415 106.8,415 106.8,410.7 	"/>
	<polygon class="st1" points="141.9,410.7 141.9,449.8 164.9,449.8 164.9,445.5 146.7,445.5 146.7,410.7 	"/>
	<path class="st1" d="M190.6,416.7h0.1l7.9,19.2h-16.2L190.6,416.7z M188.5,410.7L171,449.8h5.3l4.1-9.6h19.9l4,9.6h5.5L193,410.7
		H188.5z"/>
	<polygon class="st1" points="276.2,410.7 262.6,441.4 262.5,441.4 249,410.7 242,410.7 242,449.8 246.7,449.8 246.7,417 246.8,417 
		261.1,449.8 264,449.8 278.2,417 278.4,417 278.4,449.8 283.1,449.8 283.1,410.7 	"/>
	<path class="st1" d="M298.6,410.7v39.1h26v-4.3h-21.3v-13.9h18.9v-4.3h-18.9V415h20.3v-4.3H298.6z M312.3,400l-5.8,8h4l8-8H312.3z"
		/>
	<path class="st1" d="M341.5,445.5h9c2.3,0,4.4-0.3,6.3-0.9c2-0.6,3.6-1.5,5.1-2.7c1.4-1.2,2.5-2.8,3.4-4.7c0.8-1.9,1.2-4.2,1.2-6.9
		s-0.4-5-1.2-6.9c-0.8-1.9-1.9-3.5-3.4-4.7c-1.4-1.2-3.1-2.1-5.1-2.7c-1.9-0.6-4.1-0.9-6.3-0.9h-9V445.5z M336.8,410.7H352
		c1.3,0,2.7,0.1,4.2,0.4c1.5,0.3,2.9,0.8,4.4,1.4c1.4,0.6,2.8,1.5,4.2,2.5c1.3,1,2.5,2.3,3.5,3.7c1,1.5,1.8,3.1,2.4,5s0.9,4,0.9,6.4
		s-0.3,4.5-0.9,6.4s-1.4,3.6-2.4,5c-1,1.5-2.2,2.7-3.5,3.7s-2.7,1.9-4.2,2.5c-1.4,0.6-2.9,1.1-4.4,1.4c-1.5,0.3-2.8,0.4-4.2,0.4
		h-15.3L336.8,410.7L336.8,410.7z"/>
	<polygon class="st1" points="384.7,410.7 384.7,449.8 410.7,449.8 410.7,445.5 389.4,445.5 389.4,431.6 408.4,431.6 408.4,427.3 
		389.4,427.3 389.4,415 409.7,415 409.7,410.7 	"/>
	<path class="st1" d="M451.5,418.8c-1.2-1.6-2.7-2.8-4.4-3.6c-1.8-0.8-3.6-1.2-5.5-1.2c-2.2,0-4.2,0.4-6.1,1.3
		c-1.9,0.9-3.5,2.1-4.8,3.6s-2.4,3.2-3.1,5.2c-0.8,2-1.1,4-1.1,6.2c0,2.3,0.4,4.4,1.1,6.4s1.8,3.7,3.1,5.1c1.3,1.5,2.9,2.6,4.8,3.5
		s3.9,1.3,6.1,1.3c2.4,0,4.6-0.5,6.5-1.4s3.6-2.3,5-4.1l3.5,2.9c-1.8,2.4-4,4.1-6.5,5.2c-2.5,1.1-5.4,1.7-8.6,1.7
		c-2.8,0-5.5-0.5-8-1.5s-4.6-2.5-6.4-4.3s-3.2-4-4.3-6.5c-1-2.5-1.5-5.2-1.5-8.2c0-2.9,0.5-5.6,1.5-8.1s2.4-4.7,4.2-6.5
		c1.8-1.8,3.9-3.3,6.4-4.4c2.5-1.1,5.2-1.6,8.1-1.6c2.7,0,5.3,0.5,7.8,1.4c2.5,1,4.6,2.5,6.3,4.7L451.5,418.8z"/>
	<rect x="468.8" y="410.7" class="st1" width="4.7" height="39.1"/>
	<polygon class="st1" points="518.1,410.7 518.1,443.2 518,443.2 494.9,410.7 489,410.7 489,449.8 493.7,449.8 493.7,417.4 
		493.8,417.4 516.8,449.8 522.8,449.8 522.8,410.7 	"/>
	<polygon class="st1" points="538.3,410.7 538.3,449.8 564.3,449.8 564.3,445.5 543,445.5 543,431.6 561.9,431.6 561.9,427.3 
		543,427.3 543,415 563.3,415 563.3,410.7 	"/>
	<polygon class="st1" points="598.4,410.7 598.4,449.8 624.4,449.8 624.4,445.5 603.2,445.5 603.2,431.6 622.1,431.6 622.1,427.3 
		603.2,427.3 603.2,415 623.4,415 623.4,410.7 	"/>
	<path class="st1" d="M656.2,417.6c-0.8-1.3-1.8-2.2-3.1-2.7c-1.3-0.6-2.7-0.9-4.1-0.9c-1,0-2.1,0.1-3.1,0.4c-1,0.3-1.9,0.7-2.7,1.2
		s-1.5,1.2-1.9,2c-0.5,0.8-0.7,1.8-0.7,3c0,0.9,0.1,1.7,0.4,2.3c0.3,0.7,0.7,1.3,1.4,1.9c0.6,0.5,1.5,1.1,2.6,1.5
		c1.1,0.5,2.4,1,4,1.4c1.5,0.5,3,1,4.5,1.5c1.4,0.5,2.7,1.3,3.8,2.1c1.1,0.9,2,1.9,2.6,3.2c0.7,1.3,1,2.9,1,4.8c0,2-0.4,3.7-1.2,5.1
		c-0.8,1.4-1.8,2.6-3.1,3.6c-1.3,0.9-2.8,1.6-4.5,2.1s-3.4,0.7-5.2,0.7c-1.2,0-2.3-0.1-3.5-0.3s-2.3-0.5-3.3-0.9
		c-1.1-0.4-2.1-1-3-1.7s-1.7-1.5-2.4-2.5l4-3.3c0.9,1.4,2.1,2.5,3.6,3.3c1.5,0.7,3.2,1.1,4.9,1.1c1,0,2-0.1,3.1-0.4
		c1-0.3,2-0.7,2.8-1.3s1.5-1.3,2-2.1s0.8-1.8,0.8-2.9c0-1.2-0.2-2.2-0.6-3c-0.4-0.8-1-1.4-1.9-2s-1.9-1.1-3.3-1.5
		c-1.3-0.4-2.8-1-4.6-1.5c-1.4-0.4-2.7-0.9-3.9-1.5s-2.2-1.3-3.1-2.1c-0.9-0.8-1.6-1.8-2.1-3s-0.8-2.6-0.8-4.2
		c0-1.9,0.4-3.5,1.1-4.9c0.8-1.4,1.8-2.6,3-3.5c1.3-0.9,2.7-1.6,4.3-2.1s3.3-0.7,5.1-0.7c2.2,0,4.3,0.3,6.1,1c1.9,0.7,3.5,1.9,5,3.6
		L656.2,417.6z"/>
	<polygon class="st1" points="669.9,410.7 669.9,415 683,415 683,449.8 687.7,449.8 687.7,415 700.9,415 700.9,410.7 	"/>
	<polygon class="st1" points="738,410.7 738,427.3 716.8,427.3 716.8,410.7 712,410.7 712,449.8 716.8,449.8 716.8,431.6 738,431.6 
		738,449.8 742.7,449.8 742.7,410.7 	"/>
	<path class="st1" d="M758.2,410.7v39.1h26v-4.3h-21.3v-13.9h18.9v-4.3h-18.9V415h20.3v-4.3H758.2z M771.9,400l-5.8,8h4l8-8H771.9z"
		/>
	<polygon class="st1" points="792.8,410.7 792.8,415 805.9,415 805.9,449.8 810.6,449.8 810.6,415 823.8,415 823.8,410.7 	"/>
	<rect x="835" y="410.7" class="st1" width="4.7" height="39.1"/>
	<path class="st1" d="M857.9,429.8c0,2.2,0.4,4.3,1.2,6.2s1.9,3.6,3.2,5c1.4,1.4,3,2.5,4.9,3.3s3.9,1.2,6.1,1.2
		c2.2,0,4.2-0.4,6.1-1.2c1.9-0.8,3.5-1.9,4.9-3.3c1.4-1.4,2.4-3.1,3.2-5s1.2-4,1.2-6.2s-0.4-4.2-1.2-6.1c-0.8-1.9-1.8-3.6-3.2-5
		s-3-2.5-4.9-3.4c-1.9-0.8-3.9-1.2-6.2-1.2c-2.2,0-4.3,0.4-6.2,1.2s-3.5,2-4.9,3.4s-2.4,3.1-3.2,5
		C858.3,425.6,857.9,427.6,857.9,429.8 M896.4,449.8h-23.1c-2.9,0-5.6-0.5-8.1-1.5s-4.6-2.4-6.5-4.2c-1.8-1.8-3.2-3.9-4.3-6.4
		c-1-2.5-1.6-5.1-1.6-7.9c0-2.8,0.5-5.5,1.6-7.9c1-2.4,2.5-4.6,4.3-6.4c1.8-1.8,4-3.2,6.5-4.2s5.2-1.6,8.1-1.6s5.6,0.5,8.1,1.6
		c2.5,1,4.6,2.4,6.5,4.2c1.8,1.8,3.2,3.9,4.3,6.4c1,2.5,1.6,5.1,1.6,7.9c0,1.7-0.2,3.3-0.7,4.9c-0.4,1.6-1.1,3.2-1.9,4.6
		c-0.9,1.4-1.9,2.7-3,3.8c-1.2,1.1-2.5,2-4,2.6v0.1h12.3L896.4,449.8L896.4,449.8z"/>
	<path class="st1" d="M937.5,434.9c0,2.1-0.3,4.2-0.8,6.1c-0.5,1.9-1.4,3.6-2.6,5.1c-1.2,1.5-2.7,2.6-4.6,3.5
		c-1.9,0.9-4.2,1.3-7,1.3c-2.7,0-5.1-0.4-7-1.3c-1.9-0.9-3.5-2-4.6-3.5c-1.2-1.5-2-3.1-2.6-5.1c-0.5-1.9-0.8-3.9-0.8-6.1v-24.2h4.7
		v23.5c0,1.6,0.2,3.1,0.5,4.6s0.9,2.8,1.7,3.9c0.8,1.1,1.8,2.1,3.1,2.7c1.3,0.7,3,1,4.9,1c2,0,3.6-0.3,4.9-1
		c1.3-0.7,2.4-1.6,3.1-2.7c0.8-1.1,1.3-2.4,1.7-3.9c0.3-1.5,0.5-3,0.5-4.6v-23.5h4.7v24.2H937.5z"/>
	<polygon class="st1" points="952.8,410.7 952.8,449.8 978.8,449.8 978.8,445.5 957.5,445.5 957.5,431.6 976.4,431.6 976.4,427.3 
		957.5,427.3 957.5,415 977.8,415 977.8,410.7 	"/>
	<polygon class="st1" points="171.8,339.3 176.5,339.3 176.5,374.1 194.7,374.1 194.7,378.4 171.8,378.4 	"/>
	<polygon class="st1" points="205.5,339.3 230.5,339.3 230.5,343.6 210.2,343.6 210.2,355.9 229.1,355.9 229.1,360.2 210.2,360.2 
		210.2,374.1 231.5,374.1 231.5,378.4 205.5,378.4 	"/>
	<polygon class="st1" points="265.6,339.3 271.6,339.3 294.6,371.8 294.7,371.8 294.7,339.3 299.4,339.3 299.4,378.4 293.5,378.4 
		270.5,345.9 270.3,345.9 270.3,378.4 265.6,378.4 	"/>
	<path class="st1" d="M333.4,375.1c2.3,0,4.4-0.4,6.4-1.3c1.9-0.8,3.6-2,5-3.5s2.5-3.2,3.2-5.2c0.8-2,1.2-4.1,1.2-6.3
		s-0.4-4.4-1.2-6.3c-0.8-2-1.8-3.7-3.2-5.2c-1.4-1.5-3-2.6-5-3.5c-1.9-0.8-4.1-1.3-6.4-1.3s-4.4,0.4-6.4,1.3c-1.9,0.8-3.6,2-5,3.5
		s-2.5,3.2-3.2,5.2c-0.8,2-1.2,4.1-1.2,6.3s0.4,4.4,1.2,6.3c0.8,2,1.8,3.7,3.2,5.2c1.4,1.5,3,2.6,5,3.5
		C329,374.7,331.1,375.1,333.4,375.1 M333.4,379.4c-3,0-5.8-0.5-8.3-1.6c-2.5-1-4.7-2.5-6.6-4.3s-3.3-4-4.3-6.5s-1.5-5.3-1.5-8.2
		s0.5-5.7,1.5-8.2s2.5-4.7,4.3-6.5c1.9-1.8,4-3.2,6.6-4.3c2.5-1,5.3-1.6,8.3-1.6s5.8,0.5,8.3,1.6c2.5,1,4.7,2.5,6.6,4.3
		s3.3,4,4.3,6.5s1.5,5.3,1.5,8.2s-0.5,5.7-1.5,8.2s-2.5,4.7-4.3,6.5c-1.9,1.8-4,3.3-6.6,4.3C339.2,378.9,336.4,379.4,333.4,379.4"/>
	<path class="st1" d="M397.2,363.5c0,2.1-0.3,4.2-0.8,6.1c-0.5,1.9-1.4,3.6-2.6,5.1s-2.7,2.6-4.6,3.5s-4.2,1.3-7,1.3
		c-2.7,0-5.1-0.4-7-1.3c-1.9-0.9-3.5-2-4.6-3.5c-1.2-1.5-2-3.1-2.6-5.1c-0.5-1.9-0.8-3.9-0.8-6.1v-24.2h4.7v23.5
		c0,1.6,0.2,3.1,0.5,4.6s0.9,2.8,1.7,3.9c0.8,1.1,1.8,2.1,3.1,2.7c1.3,0.7,3,1,4.9,1s3.6-0.3,4.9-1s2.4-1.6,3.1-2.7
		c0.8-1.1,1.4-2.5,1.7-3.9c0.3-1.5,0.5-3,0.5-4.6v-23.5h4.7v24.2H397.2z"/>
	<polygon class="st1" points="407.1,339.3 412.4,339.3 424.7,371.5 424.8,371.5 437.4,339.3 442.4,339.3 426.9,378.4 422.3,378.4 	
		"/>
	<polygon class="st1" points="452.5,339.3 477.5,339.3 477.5,343.6 457.2,343.6 457.2,355.9 476.1,355.9 476.1,360.2 457.2,360.2 
		457.2,374.1 478.5,374.1 478.5,378.4 452.5,378.4 	"/>
	<path class="st1" d="M506.4,345.3h-0.1l-8.3,19.2h16.2L506.4,345.3z M504.3,339.3h4.4l16.9,39.1h-5.5l-4-9.6h-19.9l-4.1,9.6h-5.3
		L504.3,339.3z"/>
	<path class="st1" d="M566.3,363.5c0,2.1-0.3,4.2-0.8,6.1c-0.5,1.9-1.4,3.6-2.6,5.1c-1.2,1.5-2.7,2.6-4.6,3.5
		c-1.9,0.9-4.2,1.3-7,1.3c-2.7,0-5.1-0.4-7-1.3c-1.9-0.9-3.5-2-4.6-3.5c-1.2-1.5-2-3.1-2.6-5.1c-0.5-1.9-0.8-3.9-0.8-6.1v-24.2h4.7
		v23.5c0,1.6,0.2,3.1,0.5,4.6s0.9,2.8,1.7,3.9c0.8,1.1,1.8,2.1,3.1,2.7c1.3,0.7,3,1,4.9,1c2,0,3.6-0.3,4.9-1
		c1.3-0.7,2.4-1.6,3.1-2.7c0.8-1.1,1.3-2.5,1.7-3.9c0.3-1.5,0.5-3,0.5-4.6v-23.5h4.7v24.2H566.3z"/>
	<polygon class="st1" points="597.5,339.3 602.8,339.3 615,371.5 615.2,371.5 627.8,339.3 632.8,339.3 617.2,378.4 612.7,378.4 	"/>
	<rect x="642.8" y="339.3" class="st1" width="4.7" height="39.1"/>
	<path class="st1" d="M681.9,346.2c-0.8-1.3-1.8-2.2-3.1-2.7c-1.3-0.6-2.7-0.9-4.1-0.9c-1,0-2.1,0.1-3.1,0.4c-1,0.3-1.9,0.7-2.7,1.2
		s-1.5,1.2-1.9,2c-0.5,0.8-0.7,1.8-0.7,3c0,0.9,0.1,1.7,0.4,2.3c0.3,0.7,0.7,1.3,1.4,1.9c0.6,0.5,1.5,1.1,2.6,1.5
		c1.1,0.5,2.4,1,4,1.4c1.5,0.5,3,1,4.5,1.5c1.4,0.5,2.7,1.3,3.8,2.1c1.1,0.9,2,1.9,2.6,3.2c0.7,1.3,1,2.9,1,4.8c0,2-0.4,3.7-1.2,5.1
		c-0.8,1.4-1.8,2.6-3.1,3.6c-1.3,0.9-2.8,1.6-4.5,2.1s-3.4,0.7-5.2,0.7c-1.2,0-2.3-0.1-3.5-0.3s-2.3-0.5-3.3-0.9
		c-1.1-0.4-2.1-1-3-1.7s-1.7-1.5-2.4-2.5l4-3.3c0.9,1.4,2.1,2.5,3.6,3.3c1.5,0.7,3.2,1.1,4.9,1.1c1,0,2-0.1,3.1-0.4
		c1-0.3,2-0.7,2.8-1.3s1.5-1.3,2-2.1s0.8-1.8,0.8-2.9c0-1.2-0.2-2.2-0.6-3c-0.4-0.8-1-1.4-1.9-2s-1.9-1-3.3-1.5
		c-1.3-0.4-2.8-1-4.6-1.5c-1.4-0.4-2.7-0.9-3.9-1.5s-2.2-1.3-3.1-2.1c-0.9-0.8-1.6-1.8-2.1-3s-0.8-2.6-0.8-4.2
		c0-1.9,0.4-3.5,1.1-4.9c0.8-1.4,1.8-2.6,3-3.5c1.3-0.9,2.7-1.6,4.3-2.1s3.3-0.7,5.1-0.7c2.2,0,4.3,0.3,6.1,1c1.9,0.7,3.5,1.9,5,3.6
		L681.9,346.2z"/>
	<path class="st1" d="M714.9,345.3L714.9,345.3l-8.4,19.2h16.2L714.9,345.3z M712.8,339.3h4.4l16.9,39.1h-5.5l-4-9.6h-19.9l-4.1,9.6
		h-5.3L712.8,339.3z"/>
	<path class="st1" d="M778.8,375.8c-2.3,1.3-4.7,2.2-7.2,2.8s-5.1,0.9-7.7,0.9c-3.1,0-5.9-0.5-8.5-1.5s-4.8-2.4-6.7-4.2
		s-3.4-4-4.4-6.5s-1.6-5.3-1.6-8.4c0-3.1,0.6-5.9,1.7-8.4c1.1-2.5,2.6-4.7,4.6-6.5c1.9-1.8,4.2-3.2,6.8-4.2s5.4-1.5,8.4-1.5
		c2.6,0,5.1,0.4,7.6,1.2c2.4,0.8,4.6,2.1,6.5,4l-3.5,3.6c-1.3-1.4-3-2.5-4.9-3.3s-3.9-1.2-5.9-1.2c-2.3,0-4.4,0.4-6.3,1.2
		c-1.9,0.8-3.6,1.9-5.1,3.4c-1.4,1.4-2.6,3.2-3.4,5.1c-0.8,2-1.2,4.2-1.2,6.5s0.4,4.5,1.2,6.5s1.9,3.7,3.4,5.2
		c1.4,1.5,3.2,2.6,5.2,3.4c2,0.8,4.2,1.2,6.7,1.2c1.6,0,3.3-0.2,5-0.6c1.8-0.4,3.4-0.9,4.8-1.7v-12H765v-4.3h13.9v19.3H778.8z"/>
	<polygon class="st1" points="794.3,339.3 819.3,339.3 819.3,343.6 799.1,343.6 799.1,355.9 818,355.9 818,360.2 799.1,360.2 
		799.1,374.1 820.3,374.1 820.3,378.4 794.3,378.4 	"/>
</g>
<g>
	<path class="st1" d="M627.6,67.3c0-3.9,0-7.2,0-10.7c16.7,0,33.2,0,50.3,0c0,28.2,0.1,56.3,0.1,85.8c4.2-3.4,7.4-5.9,10.5-8.5
		c13-10.7,27.5-16.9,44.9-15c17.3,1.9,29,12.5,31.7,29.8c0.6,3.6,0.9,7.3,0.9,11c0.1,28.2,0.1,56.3,0.1,84.5
		c0,9.9,2.6,12.5,12.7,12.5c2.8,0,5.5,0,8.7,0c0,3.6,0,6.9,0,10.6c-22.3,0-44.7,0-67.4,0.1c0-3.3,0-6.8,0-10.3
		c3.3-0.3,6.5-0.5,9.7-0.7c3.8-0.3,5.9-2.5,6.6-6c0.4-2.1,0.8-4.2,0.8-6.4c0-26.9,0-53.9,0-80.8c0-0.9,0-1.8,0-2.8
		c-0.7-18.5-13.2-27.9-30.5-20.9c-9.8,4-18.3,11.2-27.3,17.1c-0.9,0.6-1.2,2.7-1.2,4.1c-0.1,28-0.1,56,0,84.1c0,9,2.9,11.9,12,12
		c1.7,0,3.3,0,5.3,0c0,3.7,0,7.1,0,10.7c-22.5,0-44.8,0-67.5,0.1c0-3.5,0-6.8,0-10.7c2.8,0,5.5,0,8.2,0c10.4,0,13-2.6,13-12.8
		c0-17.2,0-34.5-0.1-51.7c0-37.6-0.1-75.1-0.1-112.7c0-9.8-2.5-12.3-12.3-12.3C633.7,67.3,630.8,67.3,627.6,67.3"/>
	<path class="st1" d="M164.4,196.4c-11.2,0-21.3-0.3-31.3,0.1c-7.2,0.3-13.4,3.2-18.1,9c-8.3,10.5-7.9,34.4,1.3,44.2
		c6.9,7.3,16,8.1,25.3,7c12.1-1.5,19.7-7.8,21.1-19.7C164.3,223.7,163.9,210.1,164.4,196.4 M215.8,257c0,4.1,0,7.3,0,11.2
		c-1.8,0-3.4,0-5,0c-25.9,0-51.7,0.2-77.6-0.1c-8.5-0.1-17.1-0.7-25.3-2.6c-24.2-5.5-32.7-22.7-30-44.7
		c2.5-20.2,14.5-31.7,36.4-34.4c11.6-1.4,23.5-1.1,35.2-1.3c12.6-0.2,14.5-2,14.4-14.5c0-6,0.1-12-0.1-18
		c-0.5-11.7-7.1-19.2-18.8-21.2c-18.2-3.2-31,4.9-35.9,22.4c-1.4,4.9-2.7,9.8-4.1,14.8c-6.1,0-11.9,0-18.1,0
		c-0.1-1.1-0.4-2.1-0.3-3.1c0.8-10.4,1.5-20.9,2.5-31.3c0.1-1.3,1.2-3.3,2.4-3.7c20-8.2,40.6-13.2,62.4-10.8
		c8.7,0.9,17,3.3,24.3,8.4c11.2,7.9,15.6,19.2,15.6,32.4c0.1,27.7,0.1,55.4,0.1,83.1c0,1.8,0,3.7,0.3,5.5c0.9,5.6,2.7,7.5,8.5,8
		C207,257.3,211.2,257,215.8,257"/>
	<path class="st1" d="M289.8,185.3L289.8,185.3c6.2,0.1,12.4,0.1,18.6,0c5.9-0.1,8.2-2,9.1-7.7c2-12.7,0-24.9-6.6-36
		c-7.4-12.6-23.3-15.5-34.8-6.4c-11.3,8.9-18,30.4-13.8,44.1c1.1,3.8,3.4,6.1,7.6,6.1C276.5,185.3,283.2,185.3,289.8,185.3
		 M351.7,196.2c-31.3,0-62,0.1-93.4,0.1c0.5,18.2,2.5,35.6,15.6,49.1c11.2,11.5,25.6,13.3,40.5,9.2c8.7-2.4,16.9-6.6,25.4-10
		c2-0.8,3.9-1.6,6.8-2.7c0,4.5,0.1,8.3-0.1,12.1c0,0.8-0.9,2-1.7,2.4c-16.5,9.1-33.6,16.3-53.1,15.9c-30.5-0.6-54.1-17.9-62.6-47.1
		c-7.8-26.7-6.2-52.8,8-77.2c12.1-20.7,31.3-29.5,54.9-29.2c23.8,0.3,42.1,10.3,52.7,32.1C351.6,165,352.7,180.2,351.7,196.2"/>
	<path class="st1" d="M480.4,167.3c-3.7,0-6.9,0.2-10.1-0.1c-1-0.1-2.3-1.4-2.7-2.4c-1.7-4.1-3.1-8.4-4.8-12.5
		c-9.7-24.1-36.3-25.3-50.8-16.7c-12.6,7.4-13.8,25-1.9,33.4c6.9,4.9,15.3,8,23.1,11.4c10,4.4,20.7,7.5,30.2,12.8
		c19.3,10.6,26.5,31.7,19,51.5c-4.1,10.7-12,17.5-22.3,21.5c-22.4,8.6-44.8,6.6-67.3-0.1c-10.7-3.2-16.7-7.9-15.9-20.2
		c0.6-8.5-1.4-17.1-2.3-26.4c4,0,7.6-0.2,11.2,0.1c0.9,0.1,2.1,1.6,2.5,2.7c1.9,5,3.7,10.1,5.4,15.2c4.3,12.9,13.4,20.5,26.6,21.8
		c8.3,0.8,17-0.1,25.2-1.6c7.9-1.5,12.8-7.3,14.2-15.3c1.4-8.2-0.6-15.8-7.9-20.3c-6.8-4.2-14.2-7.3-21.6-10.5
		c-9.4-4-19.2-7-28.3-11.6c-22.3-11.3-30.3-32.9-21-55.1c5.6-13.3,16.5-20.4,29.9-24c16.4-4.4,32.5-2.2,48.5,2.4
		c4.6,1.3,9.1,2.9,13.7,4.2c2.3,0.7,3.5,1.6,3.7,4.3C477.9,143.6,479.2,155.2,480.4,167.3"/>
	<path class="st1" d="M603,134.8c-9.8,0-19.4,0-28.9,0c-10.5,0-12.8,2.3-12.8,12.8c0,30,0.3,60,0,90.1c-0.2,14.9,7.9,18,20,13.9
		c5.1-1.7,10.2-3.7,15.3-5.5c1.6-0.5,3.2-0.9,5.6-1.5c0,3.8,0.2,6.9-0.1,10c-0.1,0.9-1.2,2.2-2.1,2.5c-12.9,4.2-25.7,9-38.9,12.3
		c-12.8,3.2-23.8-2-27.9-12.5c-1.9-4.7-2.6-10.2-2.6-15.3c-0.2-33.6-0.2-67.1-0.2-100.7c0-1.8,0-3.6,0-6c-10,0-19.5,0-29.2,0
		c0-4.2,0-7.8,0-12c5.2,0,10.3,0,15.3,0c11.7,0,14-2.3,13.9-14.2c0-7.4-0.1-14.8,0.1-22.2c0-1.3,1.1-3.5,2.1-3.8
		c8.6-2.5,17.3-4.7,26-6.9c0.7-0.2,1.5,0.1,2.6,0.2c0,15.5,0,30.8,0,46.7c14.1,0,27.8,0,41.8,0C603,126.9,603,130.6,603,134.8"/>
	<path class="st1" d="M860.3,184.9L860.3,184.9c6.2,0,12.4,0.1,18.6,0c5.8-0.1,7.8-1.6,8.8-7.4c2.3-13.4,0.2-26.1-7.3-37.6
		c-7.6-11.7-22.7-13.9-33.7-5.4c-11.5,8.8-18.3,30.4-14,44.4c1.1,3.8,3.5,6,7.7,6C847,184.8,853.7,184.9,860.3,184.9 M921.9,195.8
		c-31.2,0-61.9,0.1-93.2,0.1c0.1,17.3,2.3,33.8,13.7,47.1c11.2,13.2,26.4,15.5,42.4,11.1c8.9-2.4,17.2-6.7,25.8-10.2
		c1.8-0.7,3.7-1.4,6.4-2.5c0,4.5,0.1,8.2-0.1,12c0,0.8-0.9,2-1.7,2.4c-17,9.3-34.5,16.7-54.5,15.9c-30.4-1.2-53.5-18.7-61.6-47.8
		c-7.4-26.9-6-53.2,9-77.5c12.7-20.6,32.3-28.8,56-28c34.4,1.1,54.6,24.8,57.6,57.3c0.5,5.7,0.4,11.4,0.5,17.1
		C922.3,193.6,922.1,194.3,921.9,195.8"/>
	<path class="st1" d="M843,120.7h33.3V75.3c-1.1-0.1-1.9-0.4-2.6-0.2c-8.7,2.2-17.4,4.4-26,6.9c-1,0.3-2,2.5-2.1,3.8
		c-0.2,7.4-0.1,14.8-0.1,22.2C845.5,113.9,845,118.6,843,120.7"/>
</g>
</svg>
