<svg viewBox="0 0 179 47" fill="none" xmlns="http://www.w3.org/2000/svg">
<path d="M28.1999 42.9892C26.5706 42.9892 26.1319 42.1119 26.1319 40.2319V22.8106C26.1319 15.9799 20.9933 13.4733 14.9146 13.4733C11.7813 13.4733 8.3973 14.1 5.38931 15.1653L2.69466 16.1053L2.06799 24.4399H6.83064L7.77064 20.8053C8.5853 17.8599 10.716 16.4186 13.5986 16.4186C16.4813 16.4186 18.4866 17.8599 18.4866 21.3693V24.8159C18.4866 26.6959 18.0479 27.5732 16.4186 27.5732H11.5306C2.94532 27.5732 0 31.5839 0 36.9105C0 42.1745 3.19599 45.7465 11.7186 45.7465H30.7692V42.9892H28.1999ZM18.4866 36.8479C18.4866 41.8612 15.7919 42.9892 13.2226 42.9892C9.58797 42.9892 8.14664 40.6705 8.14664 36.9105C8.14664 30.8319 11.5933 30.3306 14.0373 30.3306H18.4866V36.8479Z" fill="black"/>
<path d="M61.1678 30.3306V28.2626C61.1678 18.8626 55.6532 13.4733 47.3812 13.4733C37.5426 13.4733 32.4666 20.9306 32.4666 30.2679C32.4666 40.9212 39.4852 46.6865 47.8825 46.6865C50.9532 46.6865 54.0239 45.9345 56.9692 44.4305L59.9145 42.9892V39.7305H59.3505L56.3425 41.1092C54.0865 42.1745 52.1439 42.6759 50.2012 42.6759C44.4359 42.6759 40.9892 38.1639 41.0519 30.3306H61.1678ZM47.3186 16.2306C50.8905 16.2306 52.5825 20.1159 52.5825 24.1893C52.5825 27.6359 51.5799 27.6986 50.5145 27.6986H43.6839C42.7439 27.6986 41.6159 27.6359 41.6159 24.4399C41.6159 20.4293 43.6212 16.2306 47.3186 16.2306Z" fill="black"/>
<path d="M79.4062 26.6332C75.3956 25.2546 71.8862 24.0013 71.8862 20.8679C71.8862 18.0479 74.3302 16.5439 77.4636 16.5439C81.0355 16.5439 83.2289 18.6119 84.2315 20.8679L85.6102 24.1893H88.5555L87.7409 15.6666L84.8582 14.7893C82.2889 13.9746 79.8449 13.4733 77.2756 13.4733C70.6956 13.4733 65.6823 16.7946 65.6823 23.1866C65.6823 29.0772 69.8182 31.5839 75.5209 33.5892C80.4715 35.2812 83.2915 36.2839 83.2915 39.4172C83.2915 42.8012 80.4089 43.7412 77.3382 43.7412C72.9516 43.7412 70.8209 41.7985 69.8809 39.3545L68.2516 35.0932H65.0556L65.8703 44.1172L68.4396 45.0572C71.1342 46.0599 73.7036 46.6239 76.9622 46.6239C83.4169 46.6239 89.6208 44.1799 89.6208 37.2239C89.6208 30.2679 83.6675 28.1372 79.4062 26.6332Z" fill="black"/>
<path d="M105.213 20.1159C105.213 18.2359 105.651 17.3586 107.281 17.3586H114.487V14.4133H105.213V4.01065H104.649L97.3793 5.95331V11.656C97.3793 13.536 96.9407 14.4133 95.3113 14.4133H91.05V17.3586H97.3793V39.9812C97.3793 43.6159 99.2593 46.2478 103.082 46.2478C104.21 46.2478 105.526 45.9972 106.967 45.4959L114.174 43.1772V40.2319H113.61L109.349 41.6732C108.722 41.9239 108.095 41.9865 107.594 41.9865C106.09 41.9865 105.213 41.0465 105.213 39.2292V20.1159Z" fill="black"/>
<path d="M148.439 42.9892C146.81 42.9892 146.371 42.1119 146.371 40.2319V22.0586C146.371 16.4186 142.925 13.4733 137.849 13.4733C133.337 13.4733 130.767 15.5413 128.825 17.1706L127.383 18.3613V0H115.414V2.75732H117.983C119.613 2.75732 120.051 3.63465 120.051 5.51465V40.2319C120.051 42.1119 119.613 42.9892 117.983 42.9892H115.414V45.7465H131.018V42.9892H129.451C127.822 42.9892 127.383 42.1119 127.383 40.2319V22.1213L128.887 20.9306C130.705 19.5519 132.522 18.2359 134.903 18.2359C138.099 18.2359 138.977 20.7426 138.977 23.3746V40.2319C138.977 42.1119 138.538 42.9892 136.909 42.9892H135.342V45.7465H150.946V42.9892H148.439Z" fill="black"/>
<path d="M168.347 14.1777V3.34064L161.934 5.22534V14.1777L162.331 14.4133L167.469 13.7984L168.347 14.1777ZM179 30.3306V28.2626C179 18.8626 173.485 13.4733 165.213 13.4733C155.375 13.4733 150.299 20.9306 150.299 30.2679C150.299 40.9212 157.317 46.6865 165.715 46.6865C168.785 46.6865 171.856 45.9345 174.801 44.4305L177.747 42.9892V39.7305H177.183L174.175 41.1092C171.919 42.1745 169.976 42.6759 168.033 42.6759C162.268 42.6759 158.821 38.1639 158.884 30.3306H179ZM165.151 16.2306C168.723 16.2306 170.415 20.1159 170.415 24.1893C170.415 27.6359 169.412 27.6986 168.347 27.6986H161.516C160.576 27.6986 159.448 27.6359 159.448 24.4399C159.448 20.4293 161.453 16.2306 165.151 16.2306Z" fill="black"/>
</svg>