<svg width="32" height="40" viewBox="0 0 32 40" fill="none" xmlns="http://www.w3.org/2000/svg">
<path d="M32 16C32 28.5 16 39.5 16 39.5C16 39.5 0 27.5 0 16C0 7.16344 7.16344 0 16 0C24.8366 0 32 7.16344 32 16Z" fill="#5D23D0"/>
<path d="M20.165 20.7989C19.6354 20.7989 19.4929 20.5076 19.4929 19.8835V14.0999C19.4929 11.8322 17.8228 11 15.8473 11C14.8289 11 13.7291 11.208 12.7515 11.5617L11.8758 11.8738L11.6721 14.6408H13.22L13.5255 13.4341C13.7902 12.4563 14.4827 11.9778 15.4196 11.9778C16.3564 11.9778 17.0081 12.4563 17.0081 13.6214V14.7656C17.0081 15.3897 16.8656 15.681 16.336 15.681H14.7475C11.9572 15.681 11 17.0125 11 18.7809C11 20.5284 12.0387 21.7143 14.8086 21.7143H21V20.7989H20.165ZM17.0081 18.7601C17.0081 20.4244 16.1324 20.7989 15.2974 20.7989C14.1161 20.7989 13.6477 20.0291 13.6477 18.7809C13.6477 16.7628 14.7678 16.5964 15.5621 16.5964H17.0081V18.7601Z" fill="white"/>
</svg>
