<svg width="16" height="20" viewBox="0 0 16 20" fill="none" xmlns="http://www.w3.org/2000/svg">
<path d="M11.827 4.01202C11.827 6.22779 10.0308 8.02404 7.81503 8.02404C5.59925 8.02404 3.80301 6.22779 3.80301 4.01202C3.80301 1.79624 5.59925 0 7.81503 0C10.0308 0 11.827 1.79624 11.827 4.01202Z" fill="#FF8347"/>
<path d="M15.0249 13.8227C15.2791 15.0429 15.1301 16.3865 14.1925 17.2078C12.5858 18.6151 10.3232 19.0604 7.81658 19.0604C5.07407 19.0604 2.6237 18.4628 1.00481 16.7511C0.230688 15.9326 0.112963 14.735 0.32058 13.6277L0.689235 11.6615C0.8666 10.7156 1.69255 10.0301 2.65498 10.0301H12.6085C13.5559 10.0301 14.3733 10.6948 14.5665 11.6222L15.0249 13.8227Z" fill="#FF8347"/>
</svg>