<svg width="132" height="132" viewBox="0 0 132 132" fill="none" xmlns="http://www.w3.org/2000/svg">
<circle cx="65.753" cy="65.7531" r="53.4832" transform="rotate(-15.3807 65.753 65.7531)" fill="#5D23D0"/>
<path d="M55.2836 46.2137L56.1798 45.9672L58.0288 52.6888L61.4856 51.7379L61.7145 52.5701L57.3615 53.7675L55.2836 46.2137Z" fill="white"/>
<path d="M60.6181 44.7463L65.3659 43.4402L65.5948 44.2724L61.7433 45.3319L62.3948 47.7005L65.9903 46.7114L66.2193 47.5436L62.6237 48.5327L63.3633 51.2213L67.407 50.109L67.6359 50.9412L62.6961 52.3001L60.6181 44.7463Z" fill="white"/>
<path d="M44.2773 66.0328L48.5308 64.8627C48.9417 64.7497 49.3617 64.6894 49.7907 64.6819C50.2168 64.6642 50.615 64.7259 50.9854 64.8672C51.3633 64.9953 51.6978 65.2072 51.9891 65.5028C52.2804 65.7984 52.4939 66.1928 52.6296 66.6859C52.7991 67.3024 52.7644 67.859 52.5253 68.3558C52.2862 68.8526 51.9081 69.266 51.3911 69.5961L51.3996 69.6269C51.7499 69.5747 52.0901 69.5862 52.4202 69.6611C52.7577 69.723 53.0617 69.8438 53.3322 70.0236C53.5999 70.1931 53.8326 70.4164 54.0304 70.6936C54.2356 70.9576 54.3863 71.2643 54.4824 71.6136C54.6463 72.2095 54.6652 72.7403 54.5392 73.206C54.4103 73.6614 54.1845 74.0661 53.8619 74.42C53.5468 74.7609 53.1516 75.052 52.6765 75.2932C52.2116 75.5316 51.7223 75.7214 51.2086 75.8628L47.2788 76.9438L44.2773 66.0328ZM47.4401 69.937L49.2123 69.4495C49.8596 69.2714 50.3085 69.0153 50.5592 68.6811C50.8173 68.3338 50.8899 67.9547 50.7768 67.5437C50.6468 67.0711 50.3812 66.7684 49.98 66.6357C49.5862 66.4898 49.0195 66.5186 48.2797 66.7221L46.677 67.163L47.4401 69.937ZM48.7627 74.7452L50.5504 74.2535C50.797 74.1856 51.0547 74.0982 51.3236 73.991C51.6028 73.8811 51.845 73.7371 52.0503 73.5591C52.2555 73.3811 52.4069 73.1681 52.5045 72.9202C52.5992 72.6621 52.5971 72.3532 52.4982 71.9936C52.34 71.4183 52.0397 71.0699 51.5973 70.9484C51.1653 70.8241 50.5537 70.8708 49.7626 71.0884L47.8979 71.6014L48.7627 74.7452Z" fill="white"/>
<path d="M54.2704 63.2838L56.2122 62.7497L58.7304 71.9038L63.3691 70.6278L63.8524 72.3847L57.2719 74.1948L54.2704 63.2838Z" fill="white"/>
<path d="M63.1897 66.7484C62.9495 65.8751 62.8757 65.0444 62.9684 64.2564C63.0582 63.458 63.2856 62.7379 63.6505 62.096C64.0257 61.4513 64.5259 60.8993 65.1511 60.44C65.7837 59.9675 66.5212 59.6155 67.3637 59.3837C68.2136 59.1389 69.0298 59.0525 69.8121 59.1246C70.5917 59.1865 71.3076 59.3984 71.9598 59.7606C72.612 60.1227 73.1794 60.6186 73.6621 61.2484C74.1447 61.8782 74.5062 62.6297 74.7464 63.503C74.981 64.3557 75.0505 65.171 74.9551 65.9488C74.8596 66.7265 74.6242 67.4378 74.249 68.0825C73.8738 68.7273 73.3713 69.291 72.7415 69.7736C72.1089 70.246 71.3676 70.6047 70.5177 70.8495C69.6753 71.0813 68.8628 71.1611 68.0804 71.089C67.3055 71.0038 66.5934 70.7852 65.944 70.4334C65.3021 70.0684 64.7412 69.5762 64.2613 68.9567C63.7815 68.3372 63.4243 67.6011 63.1897 66.7484ZM65.19 66.0655C65.3511 66.6511 65.5868 67.1665 65.8972 67.6116C66.2178 68.0539 66.5919 68.4096 67.0196 68.6787C67.4473 68.9479 67.9154 69.123 68.424 69.2041C68.9428 69.2824 69.4848 69.2439 70.0499 69.0884C70.6149 68.933 71.1004 68.6889 71.5062 68.3563C71.912 68.0236 72.2298 67.6323 72.4597 67.1822C72.6895 66.7322 72.8239 66.2366 72.8629 65.6954C72.9122 65.1514 72.8563 64.5866 72.6952 64.0009C72.5454 63.4564 72.3131 62.9733 71.9981 62.5516C71.6935 62.127 71.3287 61.7853 70.9038 61.5264C70.4762 61.2572 70.0043 61.0887 69.4883 61.0206C68.9694 60.9423 68.4275 60.9809 67.8624 61.1363C67.2973 61.2918 66.8119 61.5358 66.4061 61.8685C66.0077 62.188 65.6936 62.5728 65.4637 63.0229C65.2311 63.4626 65.0873 63.9442 65.0323 64.4677C64.9877 64.9884 65.0403 65.521 65.19 66.0655Z" fill="white"/>
<path d="M87.5739 64.9973C86.4259 66.0867 85.0196 66.8603 83.3552 67.3181C82.5128 67.5499 81.7003 67.6297 80.918 67.5576C80.143 67.4724 79.4309 67.2538 78.7815 66.902C78.1396 66.5371 77.5787 66.0448 77.0989 65.4253C76.619 64.8058 76.2618 64.0697 76.0272 63.217C75.787 62.3437 75.7132 61.513 75.8059 60.725C75.8957 59.9267 76.1231 59.2066 76.488 58.5646C76.8633 57.9199 77.3634 57.3679 77.9886 56.9086C78.6212 56.4362 79.3587 56.0841 80.2012 55.8523C81.0334 55.6234 81.8425 55.5114 82.6285 55.5162C83.4116 55.5107 84.1615 55.6857 84.8782 56.0412L83.8434 57.884C83.4009 57.6411 82.9024 57.4964 82.3481 57.4499C81.8041 57.4007 81.2547 57.4523 80.6999 57.605C80.1348 57.7604 79.6494 58.0045 79.2436 58.3371C78.8452 58.6567 78.5311 59.0415 78.3013 59.4915C78.0686 59.9313 77.9248 60.4129 77.8698 60.9363C77.8252 61.457 77.8778 61.9896 78.0276 62.5341C78.1886 63.1197 78.4244 63.6351 78.7347 64.0802C79.0553 64.5225 79.4294 64.8782 79.8571 65.1473C80.2848 65.4165 80.7529 65.5916 81.2615 65.6728C81.7803 65.7511 82.3223 65.7125 82.8874 65.557C83.3805 65.4214 83.8301 65.248 84.2362 65.0368C84.6526 64.8228 85.0034 64.5716 85.2887 64.2831L84.5808 61.7095L82.3462 62.3242L81.8629 60.5673L86.0393 59.4185L87.5739 64.9973Z" fill="white"/>
<path d="M79.5534 85.186L64.1424 89.4253L63.7354 87.9458L79.1465 83.7065L79.5534 85.186Z" fill="white"/>
</svg>
