<svg viewBox="0 0 32 32" fill="none" xmlns="http://www.w3.org/2000/svg"><circle cx="16" cy="16" r="15.5" stroke="#FBE8D9"/><path fill-rule="evenodd" clip-rule="evenodd" d="M24 12.3811c-.5144.2343-1.0683.3927-1.6492.4635.5933-.364 1.0485-.9413 1.263-1.6289-.5555.3371-1.1694.5823-1.8251.7138-.5226-.5722-1.2696-.9295-2.0963-.9295-1.5851 0-2.8711 1.3188-2.8711 2.9451 0 .2309.0246.455.0739.6708-2.3871-.1231-4.5031-1.2944-5.9206-3.0783-.2474.4365-.3887.943-.3887 1.4823 0 1.0213.507 1.9229 1.2778 2.4513-.47-.0144-.9138-.1483-1.3016-.3674v.0362c0 1.4275.9902 2.6182 2.305 2.8878-.2408.0691-.4947.1037-.7569.1037-.1849 0-.3656-.0177-.5407-.0523.3657 1.1696 1.4257 2.0216 2.683 2.0443-.9828.7904-2.222 1.2615-3.5672 1.2615-.2317 0-.461-.0135-.6853-.0405 1.2712.8343 2.7816 1.3222 4.4029 1.3222 5.2838 0 8.1722-4.4872 8.1722-8.3795 0-.1281-.0025-.2561-.0074-.3817.5613-.4154 1.0485-.9337 1.4323-1.5244z" fill="#00AAEC"/></svg>
