<?xml version="1.0" encoding="utf-8"?>
<!-- Generator: Adobe Illustrator 26.5.0, SVG Export Plug-In . SVG Version: 6.00 Build 0)  -->
<svg version="1.1" id="Calque_1" xmlns="http://www.w3.org/2000/svg" xmlns:xlink="http://www.w3.org/1999/xlink" x="0px" y="0px"
	 viewBox="0 0 34 33.6" style="enable-background:new 0 0 34 33.6;" xml:space="preserve">
<style type="text/css">
	.st0{fill:#8B8B8B;}
</style>
<path class="st0" d="M33.8,16.8c0-1.7-1.6-2.7-2.8-3.4c-0.4-0.2-0.8-0.5-1.1-0.7c0.1-0.5,0.3-0.9,0.5-1.3c0.6-1.3,1.3-3,0.3-4.4
	s-2.8-1.2-4.3-1.1l0,0c-0.5,0-0.9,0-1.4,0c-0.1-0.3-0.3-0.9-0.4-1.3c-0.3-1.4-0.7-3.2-2.4-3.7c-1.6-0.5-2.9,0.7-4,1.6
	c-0.4,0.4-0.7,0.7-1.2,1c-0.4-0.3-0.8-0.6-1.2-0.9c-1.1-0.9-2.5-2.1-4-1.6S9.7,3.1,9.4,4.5c-0.1,0.4-0.3,1-0.4,1.3
	c-0.5,0-0.9,0-1.4,0C6.2,5.7,4.4,5.6,3.4,7s-0.3,3,0.3,4.4l0,0c0.2,0.4,0.4,0.9,0.5,1.3c-0.4,0.3-0.7,0.5-1.1,0.7
	c-1.3,0.7-2.8,1.7-2.8,3.4s1.6,2.7,2.8,3.4c0.4,0.2,0.8,0.5,1.1,0.7c-0.1,0.5-0.3,0.9-0.5,1.3c-0.6,1.3-1.3,3-0.3,4.4
	c1,1.4,2.8,1.2,4.3,1.1l0,0c0.5,0,0.9,0,1.4,0c0.1,0.3,0.3,0.9,0.4,1.3c0.3,1.4,0.7,3.2,2.4,3.7c1.6,0.5,2.9-0.7,4-1.7l0,0
	c0.4-0.3,0.7-0.6,1.2-0.9c0.4,0.3,0.8,0.6,1.2,0.9c0.9,0.9,2,1.5,3.2,1.7c0.3,0,0.5-0.1,0.8-0.1c1.7-0.5,2.1-2.3,2.4-3.7
	c0.1-0.4,0.3-1,0.4-1.3c0.5,0,0.9,0,1.4,0c1.5,0.1,3.3,0.3,4.3-1.1c1-1.4,0.3-3-0.3-4.4l0,0c-0.2-0.4-0.4-0.9-0.5-1.3
	c0.4-0.3,0.7-0.5,1.1-0.7C32.2,19.5,33.8,18.5,33.8,16.8L33.8,16.8z M23.4,13.6l-6.7,8.4c-0.3,0.4-0.7,0.6-1.2,0.6h-0.1
	c-0.4,0-0.9-0.2-1.2-0.5l-3.4-3.4l0,0c-0.4-0.4-0.6-1-0.4-1.6c0.2-0.6,0.6-1,1.2-1.2c0.6-0.2,1.2,0,1.6,0.4l2,2l5.6-6.9
	c0.4-0.4,1-0.6,1.5-0.5c0.6,0.1,1,0.5,1.3,1C23.7,12.6,23.7,13.2,23.4,13.6L23.4,13.6z"/>
</svg>
