<svg xmlns="http://www.w3.org/2000/svg" width="50" height="50"><g fill="none" fill-rule="evenodd"><path stroke="#444" stroke-width="2" d="M36.5 25.5h12"/><path fill="#444" fill-rule="nonzero" d="M36.5 24.5a1 1 0 100 2 1 1 0 000-2zm-10.833-14H6.333A4.839 4.839 0 001.5 15.333v19.334A4.839 4.839 0 006.333 39.5h19.334a4.839 4.839 0 004.833-4.833V15.333a4.839 4.839 0 00-4.833-4.833zm-.46 9.707l-12 12a.997.997 0 01-1.414 0l-5-5a.999.999 0 111.414-1.414l4.293 4.293 11.293-11.293a.999.999 0 111.414 1.414z"/></g></svg>